<svg width="25" height="12" viewBox="0 0 25 12" fill="none" xmlns="http://www.w3.org/2000/svg">
<path opacity="0.35" fill-rule="evenodd" clip-rule="evenodd" d="M3.75177 0.833374C2.74349 0.833374 2.34479 0.910367 1.93326 1.13046C1.58582 1.31627 1.31615 1.58595 1.13034 1.93338C0.910245 2.34491 0.833252 2.74361 0.833252 3.75189V8.24819C0.833252 9.25647 0.910245 9.65517 1.13034 10.0667C1.31615 10.4141 1.58582 10.6838 1.93326 10.8696C2.34479 11.0897 2.74349 11.1667 3.75177 11.1667H18.9147C19.923 11.1667 20.3217 11.0897 20.7332 10.8696C21.0807 10.6838 21.3504 10.4141 21.5362 10.0667C21.7563 9.65517 21.8333 9.25647 21.8333 8.24819V3.75189C21.8333 2.74361 21.7563 2.34491 21.5362 1.93338C21.3504 1.58595 21.0807 1.31627 20.7332 1.13046C20.3217 0.910367 19.923 0.833374 18.9147 0.833374H3.75177Z" stroke="black"/>
<path opacity="0.4" d="M23.3333 4V8C24.138 7.66122 24.6613 6.87313 24.6613 6C24.6613 5.12687 24.138 4.33878 23.3333 4Z" fill="black"/>
<path d="M4.04251 2.33337H18.624C19.2183 2.33337 19.4339 2.39526 19.6511 2.51146C19.8684 2.62767 20.039 2.79819 20.1552 3.01548C20.2714 3.23276 20.3333 3.44829 20.3333 4.04263V7.95745C20.3333 8.5518 20.2714 8.76732 20.1552 8.9846C20.039 9.20189 19.8684 9.37241 19.6511 9.48862C19.4339 9.60482 19.2183 9.66671 18.624 9.66671H4.04251C3.44816 9.66671 3.23264 9.60482 3.01535 9.48862C2.79807 9.37241 2.62755 9.20189 2.51134 8.9846C2.39514 8.76732 2.33325 8.5518 2.33325 7.95745V4.04263C2.33325 3.44829 2.39514 3.23276 2.51134 3.01548C2.62755 2.79819 2.79807 2.62767 3.01535 2.51146C3.23264 2.39526 3.44816 2.33337 4.04251 2.33337Z" fill="black"/>
</svg>
