<svg width="13" height="12" viewBox="0 0 13 12" fill="none" xmlns="http://www.w3.org/2000/svg">
<path d="M6.5 2.11763C4.01621 2.11763 1.76378 3.60304 0.101718 6.01573C-0.0339061 6.21339 -0.0339061 6.48955 0.101718 6.68721C1.76378 9.10281 4.01621 10.5882 6.5 10.5882C8.98379 10.5882 11.2362 9.10281 12.8983 6.69012C13.0339 6.49245 13.0339 6.2163 12.8983 6.01864C11.2362 3.60303 8.98379 2.11763 6.5 2.11763ZM6.67817 9.33536C5.02941 9.44873 3.66784 7.96332 3.77156 6.15816C3.85665 4.66985 4.96026 3.46351 6.32183 3.37049C7.97059 3.25712 9.33216 4.74252 9.22844 6.54768C9.14069 8.03309 8.03708 9.23944 6.67817 9.33536ZM6.59573 7.95751C5.70753 8.01855 4.97356 7.21917 5.03206 6.24828C5.07727 5.44598 5.67296 4.79775 6.40692 4.74543C7.29513 4.68439 8.0291 5.48377 7.97059 6.45466C7.92273 7.25986 7.32704 7.90809 6.59573 7.95751Z" fill="#848484"/>
<path d="M1.13489 1.10921L11.486 11.2261" stroke="#848484" stroke-width="1.25" stroke-linecap="square"/>
</svg>
